<?xml version="1.0" encoding="UTF-8"?>
<svg width="752pt" height="752pt" version="1.1" viewBox="0 0 752 752" xmlns="http://www.w3.org/2000/svg">
 <path d="m589.11 376c0 117.45-95.664 213.11-213.11 213.11-117.45 0-213.11-95.664-213.11-213.11 0-64.406 29.836-125.5 79.09-165.75l-26.996 0.003906c-5.2109 0-9.4727-4.2617-9.4727-9.4727 0-5.2109 4.2617-9.4727 9.4727-9.4727h56.828c2.8398 0 5.2109 1.4219 7.1055 3.3164 0.47266 0.47266 0.47266 0.94531 0.94531 1.4219v0.47266s0 0.47266 0.47266 0.47266v0.47266c0.47266 0.47266 0.47266 1.4219 0.47266 1.8945v1.4219 1.4219l0.003906 55.406c0 5.2109-4.2617 9.4727-9.4727 9.4727-5.2109 0-9.4727-4.2617-9.4727-9.4727v-38.832c-49.727 35.992-80.035 95.188-80.035 157.23 0 107.03 87.141 194.17 194.17 194.17s194.17-87.141 194.17-194.17-87.137-194.17-194.17-194.17c-5.2109 0-9.4727-4.2617-9.4727-9.4727s4.2617-9.4727 9.4727-9.4727c117.45 0.003906 213.11 95.668 213.11 213.11zm-284.15 61.566v18.941h-4.7344c-5.2109 0-9.4727 4.2617-9.4727 9.4727 0 5.2109 4.2617 9.4727 9.4727 9.4727h151.55c5.2109 0 9.4727-4.2617 9.4727-9.4727 0-5.2109-4.2617-9.4727-9.4727-9.4727h-4.7344v-18.941c0-2.3672-0.94531-4.7344-2.8398-6.6289l-54.941-54.938 54.934-54.934c1.8945-1.8945 2.8438-4.2617 2.8438-6.6289v-18.941h4.7344c5.2109 0 9.4727-4.2617 9.4727-9.4727 0-5.2109-4.2617-9.4727-9.4727-9.4727h-151.54c-5.2109 0-9.4727 4.2617-9.4727 9.4727 0 5.2109 4.2617 9.4727 9.4727 9.4727h4.7344v18.941c0 2.3672 0.94531 4.7344 2.8398 6.6289l54.938 54.934-54.938 54.938c-1.8945 1.8945-2.8398 4.2617-2.8398 6.6289zm11.84 66.777c-0.47266 0-0.94531-0.47266-1.8945-0.47266h-3.7891c-0.47266 0-0.94531 0.47266-1.8945 0.47266-0.47266 0.47266-0.94531 0.47266-1.4219 0.94531-0.47266 0.47266-0.94531 0.94531-1.4219 0.94531-1.418 2.3711-2.3672 4.7383-2.3672 7.1055 0 1.4219 0 2.3672 0.47266 3.7891 0.47266 0.94531 0.94531 2.3672 1.8945 2.8398 1.8945 1.8945 4.2617 2.8398 6.6289 2.8398 1.4219 0 2.3672 0 3.7891-0.94531 0.94531-0.47266 2.3672-0.94531 2.8398-1.8945 0.94531-0.94531 1.4219-1.8945 1.8945-2.8398 0.47266-0.94531 0.94531-2.3672 0.94531-3.7891 0-2.3672-0.94531-4.7344-2.8398-6.6289-0.47266-0.47266-0.94531-0.94531-1.4219-0.94531-0.46875-0.003906-0.94141-0.94922-1.4141-1.4219zm53.516 2.3672c-1.8945 1.8945-2.8398 4.2617-2.8398 6.6289 0 1.4219 0 2.3672 0.47266 3.7891 0.47266 0.94531 0.94531 2.3672 1.8945 2.8398 1.8945 1.8945 4.2617 2.8398 6.6289 2.8398 1.4219 0 2.3672 0 3.7891-0.94531 0.94531-0.47266 2.3672-0.94531 2.8398-1.8945 0.94531-0.94531 1.4219-1.8945 1.8945-2.8398 0.47266-0.94531 0.94531-2.3672 0.94531-3.7891 0-2.3672-0.94531-4.7344-2.8398-6.6289-2.8438-3.7891-9-3.7891-12.785 0zm61.562 0c-0.47266 0.47266-0.94531 0.94531-0.94531 1.4219-0.47266 0.47266-0.47266 0.94531-0.94531 1.4219 0 0.47266-0.47266 0.94531-0.47266 1.8945v1.8945c0 1.4219 0 2.3672 0.47266 3.7891 0.47266 0.94531 0.94531 2.3672 1.8945 2.8398 1.8945 1.8945 4.2617 2.8398 6.6289 2.8398s4.7344-0.94531 6.6289-2.8398c1.8945-1.8945 2.8398-4.2617 2.8398-6.6289s-0.94531-4.7344-2.8398-6.6289c-3.3164-3.793-9.4727-3.793-13.262-0.003906z"/>
</svg>
